<svg width="375" height="42" viewBox="0 0 375 42" version="1.1" xmlns="http://www.w3.org/2000/svg" xmlns:xlink="http://www.w3.org/1999/xlink">
    <title>Pub</title>
    <desc>Created using Figma</desc>
    <g id="Canvas" transform="translate(188 303)">
        <g id="Pub">
            <g id="Rectangle">
                <use xlink:href="#path0_fill" transform="translate(-188 -303)" fill="#C4C4C4"/>
            </g>
            <g id="pub">
                <use xlink:href="#path1_fill" transform="translate(-15 -294)"/>
            </g>
        </g>
    </g>
    <defs>
        <path id="path0_fill" d="M 0 0L 375 0L 375 42L 0 42L 0 0Z"/>
        <path id="path1_fill" d="M 6.8291 9.37012C 6.8291 10.5231 6.58073 11.4391 6.08398 12.1182C 5.58724 12.7972 4.91048 13.1367 4.05371 13.1367C 3.49316 13.1367 2.99414 13.0228 2.55664 12.7949C 2.11914 12.5671 1.77734 12.2526 1.53125 11.8516L 1.53125 15.8438L 1.16211 15.8438L 1.16211 5.60352L 1.53125 5.60352L 1.53125 6.92285C 1.78646 6.45345 2.13053 6.09342 2.56348 5.84277C 2.99642 5.59212 3.48861 5.4668 4.04004 5.4668C 4.90592 5.4668 5.58724 5.79948 6.08398 6.46484C 6.58073 7.12565 6.8291 8.05534 6.8291 9.25391L 6.8291 9.37012ZM 6.45312 9.22656C 6.45312 8.16471 6.24121 7.33529 5.81738 6.73828C 5.39811 6.13672 4.80794 5.83594 4.04688 5.83594C 3.42708 5.83594 2.90072 5.99772 2.46777 6.32129C 2.03483 6.6403 1.72266 7.10059 1.53125 7.70215L 1.53125 11.1611C 1.72266 11.6715 2.03483 12.068 2.46777 12.3506C 2.90527 12.6286 3.4362 12.7676 4.06055 12.7676C 4.81706 12.7676 5.40495 12.4668 5.82422 11.8652C 6.24349 11.2637 6.45312 10.3841 6.45312 9.22656ZM 13.8018 13L 13.8018 11.8037C 13.583 12.2139 13.264 12.5397 12.8447 12.7812C 12.4255 13.0182 11.8945 13.1367 11.252 13.1367C 10.4453 13.1367 9.83919 12.902 9.43359 12.4326C 9.03255 11.9587 8.82747 11.2705 8.81836 10.3682L 8.81836 5.60352L 9.1875 5.60352L 9.1875 10.3818C 9.19661 11.1657 9.37435 11.7604 9.7207 12.166C 10.0671 12.5671 10.5729 12.7676 11.2383 12.7676C 11.9447 12.7676 12.5189 12.6012 12.9609 12.2686C 13.403 11.9359 13.6833 11.4482 13.8018 10.8057L 13.8018 5.60352L 14.1777 5.60352L 14.1777 13L 13.8018 13ZM 22.1689 9.37012C 22.1689 10.5231 21.9206 11.4391 21.4238 12.1182C 20.9271 12.7972 20.2503 13.1367 19.3936 13.1367C 18.8376 13.1367 18.3408 13.0228 17.9033 12.7949C 17.4658 12.5625 17.1217 12.2412 16.8711 11.8311L 16.8711 13L 16.502 13L 16.502 2.5L 16.8711 2.5L 16.8711 6.9502C 17.1309 6.46257 17.4727 6.09342 17.8965 5.84277C 18.3249 5.59212 18.8193 5.4668 19.3799 5.4668C 20.2458 5.4668 20.9271 5.79948 21.4238 6.46484C 21.9206 7.12565 22.1689 8.05534 22.1689 9.25391L 22.1689 9.37012ZM 21.7861 9.22656C 21.7861 8.16471 21.5742 7.33529 21.1504 6.73828C 20.7311 6.13672 20.1432 5.83594 19.3867 5.83594C 18.7669 5.83594 18.2406 5.99544 17.8076 6.31445C 17.3792 6.63346 17.0671 7.10742 16.8711 7.73633L 16.8711 11.127C 17.0671 11.651 17.3792 12.0566 17.8076 12.3438C 18.2406 12.6263 18.7715 12.7676 19.4004 12.7676C 20.1615 12.7676 20.7493 12.4645 21.1641 11.8584C 21.5788 11.2523 21.7861 10.375 21.7861 9.22656Z"/>
    </defs>
</svg>
