<svg width="38" height="38" viewBox="0 0 38 38" version="1.1" xmlns="http://www.w3.org/2000/svg" xmlns:xlink="http://www.w3.org/1999/xlink">
    <title>Search Players</title>
    <desc>Created using Figma</desc>
    <g id="Canvas" transform="translate(-71 250)">
        <g id="Rectangle 2">
            <use xlink:href="#path0_fill" transform="translate(71 -250)" fill="#F5F2F2"/>
        </g>
        <g id="down-arrow" filter="url(#filter0_dd)">
            <g id="Group">
                <g id="Vector">
                    <use xlink:href="#path1_fill" transform="matrix(1.7087e-16 -1 1 1.7087e-16 82.5 -216.5)" fill="#5DB55B"/>
                    <mask id="mask0_outline_out">
                        <rect id="mask0_outline_inv" fill="white" x="-1" y="-1" width="33" height="18" transform="matrix(1.7087e-16 -1 1 1.7087e-16 82.5 -216.5)"/>
                        <use xlink:href="#path1_fill" fill="black" transform="matrix(1.7087e-16 -1 1 1.7087e-16 82.5 -216.5)"/>
                    </mask>
                    <g mask="url(#mask0_outline_out)">
                        <use xlink:href="#path2_stroke_2x" transform="matrix(1.7087e-16 -1 1 1.7087e-16 82.5 -216.5)" fill="#5DB55B"/>
                    </g>
                </g>
            </g>
        </g>
    </g>
    <defs>
        <filter id="filter0_dd" filterUnits="userSpaceOnUse" x="80" y="-250" width="21" height="38" color-interpolation-filters="sRGB">
            <feFlood flood-opacity="0" result="BackgroundImageFix"/>
            <feColorMatrix in="SourceAlpha" type="matrix" values="0 0 0 0 0 0 0 0 0 0 0 0 0 0 0 0 0 0 255 0"/>
            <feOffset dx="0" dy="2"/>
            <feGaussianBlur stdDeviation="1"/>
            <feColorMatrix type="matrix" values="0 0 0 0 0 0 0 0 0 0 0 0 0 0 0 0 0 0 0.24 0"/>
            <feBlend mode="normal" in2="BackgroundImageFix" result="effect1_dropShadow"/>
            <feColorMatrix in="SourceAlpha" type="matrix" values="0 0 0 0 0 0 0 0 0 0 0 0 0 0 0 0 0 0 255 0"/>
            <feOffset dx="0" dy="0"/>
            <feGaussianBlur stdDeviation="1"/>
            <feColorMatrix type="matrix" values="0 0 0 0 0 0 0 0 0 0 0 0 0 0 0 0 0 0 0.12 0"/>
            <feBlend mode="normal" in2="effect1_dropShadow" result="effect2_dropShadow"/>
            <feBlend mode="normal" in="SourceGraphic" in2="effect2_dropShadow" result="shape"/>
        </filter>
        <path id="path0_fill" d="M 0 0L 38 0L 38 37L 0 37L 0 0Z"/>
        <path id="path1_fill" d="M 30.6828 0.309178C 30.2556 -0.10306 29.5612 -0.10306 29.134 0.309178L 15.515 13.475L 1.86927 0.309178C 1.44201 -0.10306 0.74771 -0.10306 0.320447 0.309178C -0.106816 0.721417 -0.106816 1.3913 0.320447 1.80354L 14.7139 15.6908C 14.9275 15.8969 15.1945 16 15.4883 16C 15.7553 16 16.0491 15.8969 16.2627 15.6908L 30.6561 1.80354C 31.1101 1.3913 31.1101 0.721417 30.6828 0.309178L 30.6828 0.309178Z"/>
        <path id="path2_stroke_2x" d="M 29.134 0.309178L 28.7868 -0.0506451L 28.7865 -0.050305L 29.134 0.309178ZM 15.515 13.475L 15.1678 13.8349L 15.5153 14.1702L 15.8625 13.8345L 15.515 13.475ZM 1.86927 0.309178L 1.5221 0.669002L 1.5221 0.669002L 1.86927 0.309178ZM 0.320447 1.80354L 0.667617 1.44372L 0.320447 1.80354ZM 14.7139 15.6908L 14.3667 16.0506L 14.7139 15.6908ZM 16.2627 15.6908L 16.6099 16.0506L 16.6099 16.0506L 16.2627 15.6908ZM 30.6561 1.80354L 30.32 1.43339L 30.3144 1.43847L 30.3089 1.44372L 30.6561 1.80354ZM 31.03 -0.050645C 30.409 -0.649786 29.4078 -0.649786 28.7868 -0.050645L 29.4812 0.669002C 29.7147 0.443666 30.1021 0.443666 30.3356 0.669002L 31.03 -0.050645ZM 28.7865 -0.050305L 15.1675 13.1156L 15.8625 13.8345L 29.4815 0.668662L 28.7865 -0.050305ZM 15.8622 13.1152L 2.21645 -0.050645L 1.5221 0.669002L 15.1678 13.8349L 15.8622 13.1152ZM 2.21645 -0.050645C 1.59547 -0.649786 0.594254 -0.649786 -0.0267231 -0.050645L 0.667617 0.669002C 0.901166 0.443666 1.28856 0.443666 1.5221 0.669002L 2.21645 -0.050645ZM -0.0267231 -0.050645C -0.657759 0.558201 -0.657759 1.55452 -0.0267231 2.16337L 0.667617 1.44372C 0.444128 1.22809 0.444128 0.884633 0.667617 0.669002L -0.0267231 -0.050645ZM -0.0267231 2.16337L 14.3667 16.0506L 15.061 15.331L 0.667617 1.44372L -0.0267231 2.16337ZM 14.3667 16.0506C 14.677 16.3501 15.07 16.5 15.4883 16.5L 15.4883 15.5C 15.3191 15.5 15.178 15.4438 15.061 15.331L 14.3667 16.0506ZM 15.4883 16.5C 15.8735 16.5 16.2952 16.3542 16.6099 16.0506L 15.9155 15.331C 15.8029 15.4396 15.6371 15.5 15.4883 15.5L 15.4883 16.5ZM 16.6099 16.0506L 31.0033 2.16337L 30.3089 1.44372L 15.9155 15.331L 16.6099 16.0506ZM 30.9922 2.1737C 31.6623 1.56527 31.6634 0.560459 31.03 -0.050645L 30.3356 0.669002C 30.5568 0.882375 30.5579 1.21734 30.32 1.43339L 30.9922 2.1737Z"/>
    </defs>
</svg>
